<svg xmlns="http://www.w3.org/2000/svg" width="833.292" height="552.167" viewBox="0 0 833.292 552.167"><g transform="translate(-1013.543 -195.769)"><g transform="translate(1067.867 195.769)"><g transform="translate(21.961 112.903)"><rect width="187.608" height="146.372" rx="13.046" transform="translate(0)" fill="#3c89ff"/><g transform="translate(15.608 10.012)"><path d="M1098.86,1125.278a3.807,3.807,0,1,1,3.807-3.807A3.811,3.811,0,0,1,1098.86,1125.278Zm0-7.112a3.305,3.305,0,1,0,3.3,3.3A3.308,3.308,0,0,0,1098.86,1118.166Z" transform="translate(-1095.053 -1117.664)" fill="#fefef4"/><g transform="translate(13.821)"><path d="M1138.232,1125.278a3.807,3.807,0,1,1,3.807-3.807A3.812,3.812,0,0,1,1138.232,1125.278Zm0-7.112a3.305,3.305,0,1,0,3.3,3.3A3.308,3.308,0,0,0,1138.232,1118.166Z" transform="translate(-1134.425 -1117.664)" fill="#fefef4"/></g><g transform="translate(27.642)"><path d="M1177.6,1125.278a3.807,3.807,0,1,1,3.807-3.807A3.812,3.812,0,0,1,1177.6,1125.278Zm0-7.112a3.305,3.305,0,1,0,3.305,3.3A3.309,3.309,0,0,0,1177.6,1118.166Z" transform="translate(-1173.798 -1117.664)" fill="#fefef4"/></g></g><g transform="translate(0 28.399)"><rect width="187.608" height="0.502" fill="#fefef4"/></g><g transform="translate(77.213 129.811)"><circle cx="16.498" cy="16.498" r="16.498" fill="#fff"/><circle cx="10.18" cy="10.18" r="10.18" transform="translate(6.318 6.318)" fill="#3c89ff"/></g></g><g transform="translate(114.619 279.496)"><path d="M1621.583,1708.788h-.775v-2.106h.775Zm-6.391,0h-2.808v-2.106h2.808Zm-8.425,0h-2.808v-2.106h2.808Zm-8.425,0h-2.808v-2.106h2.808Zm-8.425,0h-2.808v-2.106h2.808Zm-8.425,0h-2.808v-2.106h2.808Zm-8.425,0h-2.808v-2.106h2.808Zm-8.425,0h-2.808v-2.106h2.808Zm-8.425,0h-2.808v-2.106h2.808Zm-8.425,0h-2.808v-2.106h2.808Zm-8.425,0h-2.808v-2.106h2.808Zm-8.424,0h-2.808v-2.106h2.808Zm-8.425,0h-2.808v-2.106h2.808Zm-8.425,0h-2.808v-2.106h2.808Zm-8.425,0h-2.808v-2.106h2.808Zm-8.425,0h-2.808v-2.106h2.808Zm-8.425,0h-2.808v-2.106h2.808Zm-8.425,0h-2.808v-2.106h2.808Zm-8.425,0h-2.808v-2.106h2.808Zm-8.425,0h-2.808v-2.106h2.808Zm-8.425,0h-2.808v-2.106h2.808Zm-8.425,0h-2.808v-2.106h2.808Zm-8.425,0h-2.808v-2.106h2.808Zm-8.425,0h-2.808v-2.106h2.808Zm-8.424,0h-2.808v-2.106h2.808Zm-8.425,0h-2.808v-2.106H1413Zm-8.425,0h-2.808v-2.106h2.808Zm-8.425,0h-2.808v-2.106h2.808Zm-8.425,0h-2.808v-2.106h2.808Zm-8.425,0h-2.808v-2.106h2.808Zm-8.425,0h-2.808v-2.106h2.808Zm-8.425,0h-1.214c-.545,0-1.093-.01-1.629-.028l.072-2.1c.513.018,1.037.027,1.558.027h1.214Zm-8.557-.575c-.941-.148-1.891-.329-2.822-.535l.457-2.057c.889.2,1.795.369,2.693.511Zm-8.339-2.125c-.9-.319-1.793-.671-2.67-1.046l.829-1.936c.836.358,1.693.694,2.548,1Zm-7.8-3.624c-.823-.48-1.643-.992-2.433-1.521l1.17-1.751c.755.5,1.537.994,2.324,1.452Zm-7-5c-.721-.622-1.432-1.275-2.115-1.941l1.47-1.508c.652.636,1.333,1.26,2.021,1.854Zm-5.972-6.193c-.6-.743-1.177-1.516-1.728-2.3l1.722-1.214c.525.745,1.08,1.483,1.649,2.193Zm-4.743-7.184c-.451-.843-.88-1.71-1.277-2.576l1.915-.877c.379.827.789,1.655,1.22,2.46Zm-3.341-7.937c-.287-.909-.549-1.839-.778-2.765l2.044-.508c.219.883.469,1.771.743,2.639Zm-1.815-8.411c-.114-.944-.2-1.906-.256-2.86l2.1-.124c.054.911.136,1.83.244,2.731Zm1.769-8.535h-2.106V1656.4h2.106Zm0-8.425h-2.106v-2.808h2.106Zm0-8.425h-2.106v-2.808h2.106Zm0-8.425h-2.106v-2.808h2.106Zm0-8.425h-2.106V1622.7h2.106Zm0-8.425h-2.106v-2.808h2.106Zm0-8.424h-2.106v-2.809h2.106Zm0-8.425h-2.106v-2.808h2.106Zm0-8.424h-2.106V1589h2.106Zm0-8.425h-2.106v-2.808h2.106Zm0-8.425h-2.106v-2.808h2.106Zm0-8.425h-2.106v-2.808h2.106Z" transform="translate(-1314.551 -1563.729)" fill="#fff"/></g><g transform="translate(329.85)"><g transform="translate(0 0)"><path d="M9,0H179.827a9,9,0,0,1,9,9V146.287a0,0,0,0,1,0,0H0a0,0,0,0,1,0,0V9A9,9,0,0,1,9,0Z" transform="translate(0)" fill="#fff"/><rect width="176.073" height="132.718" transform="translate(6.377 6.306)" fill="#ebf2ff"/><path d="M5535.87,2292.21v101.34c0,2.1-1.374,3.81-3.07,3.81H5375.384c-1.695,0-3.069-1.706-3.069-3.81v-112.58c0-2.1,1.375-3.81,3.069-3.81h22.971c1.7,0,3.07,1.706,3.07,3.81v3.62c0,2.1,1.375,3.81,3.07,3.81H5532.8C5534.5,2288.4,5535.87,2290.106,5535.87,2292.21Z" transform="translate(-5359.677 -2264.597)" fill="#fff"/><g transform="translate(18.324 15.187)"><circle cx="1.993" cy="1.993" r="1.993" fill="#ff4731"/><circle cx="1.993" cy="1.993" r="1.993" transform="translate(7.16)" fill="#ffc861"/><circle cx="1.993" cy="1.993" r="1.993" transform="translate(14.32)" fill="#00b25e"/></g></g><g transform="translate(66.99 34.973)"><circle cx="23.903" cy="23.903" r="23.903" transform="translate(0 7.658) rotate(-9.217)" fill="#3c89ff"/></g><g transform="translate(116.64 99.606)"><g transform="translate(0)"><path d="M5726.731,2515.91a14.607,14.607,0,1,1,14.608-14.607A14.624,14.624,0,0,1,5726.731,2515.91Zm0-27.337a12.73,12.73,0,1,0,12.73,12.729A12.744,12.744,0,0,0,5726.731,2488.573Z" transform="translate(-5712.124 -2486.695)" fill="#3c89ff"/></g><g transform="translate(9.159 6)"><g transform="translate(0 9.913)"><path d="M5751.349,2544.846a.939.939,0,0,1-.939-.939v-.914a3.571,3.571,0,1,0-7.142,0v.914a.938.938,0,1,1-1.877,0v-.914a5.448,5.448,0,1,1,10.9,0v.914A.938.938,0,0,1,5751.349,2544.846Z" transform="translate(-5741.391 -2537.545)" fill="#3c89ff"/></g><g transform="translate(1.337)"><path d="M5749.773,2514.093a4.112,4.112,0,1,1,4.112-4.112A4.117,4.117,0,0,1,5749.773,2514.093Zm0-6.346a2.234,2.234,0,1,0,2.234,2.234A2.236,2.236,0,0,0,5749.773,2507.747Z" transform="translate(-5745.662 -2505.869)" fill="#3c89ff"/></g></g></g><g transform="translate(42.973 99.606)"><g transform="translate(0)"><path d="M5486.611,2515.91a14.607,14.607,0,1,1,14.607-14.607A14.624,14.624,0,0,1,5486.611,2515.91Zm0-27.337a12.73,12.73,0,1,0,12.73,12.729A12.744,12.744,0,0,0,5486.611,2488.573Z" transform="translate(-5472.004 -2486.695)" fill="#3c89ff"/></g><g transform="translate(9.159 6)"><g transform="translate(0 9.913)"><path d="M5511.229,2544.846a.939.939,0,0,1-.939-.939v-.914a3.571,3.571,0,1,0-7.142,0v.914a.939.939,0,0,1-1.878,0v-.914a5.449,5.449,0,0,1,10.9,0v.914A.939.939,0,0,1,5511.229,2544.846Z" transform="translate(-5501.27 -2537.545)" fill="#3c89ff"/></g><g transform="translate(1.337)"><path d="M5509.653,2514.093a4.112,4.112,0,1,1,4.112-4.112A4.117,4.117,0,0,1,5509.653,2514.093Zm0-6.346a2.234,2.234,0,1,0,2.234,2.234A2.237,2.237,0,0,0,5509.653,2507.747Z" transform="translate(-5505.542 -2505.869)" fill="#3c89ff"/></g></g></g><g transform="translate(109.756 83.94)"><path d="M5701.338,2475.392a.936.936,0,0,1-.673-.283l-11.354-11.652a.939.939,0,0,1,1.345-1.31l11.354,11.652a.939.939,0,0,1-.672,1.594Z" transform="translate(-5689.045 -2461.863)" fill="#3c89ff"/></g><g transform="translate(65.84 83.94)"><path d="M5547.095,2475.392a.939.939,0,0,1-.672-1.594l11.354-11.652a.939.939,0,1,1,1.345,1.31l-11.354,11.653A.938.938,0,0,1,5547.095,2475.392Z" transform="translate(-5546.156 -2461.861)" fill="#3c89ff"/></g><g transform="translate(69.571 107.837)"><path d="M5608.1,2532.25H5560.3a.939.939,0,0,1,0-1.878H5608.1a.939.939,0,0,1,0,1.878Z" transform="translate(-5559.358 -2530.372)" fill="#3c89ff"/></g><g transform="translate(85.588 49.525)"><g transform="translate(0 15.812)"><path d="M5627.251,2428.631a.939.939,0,0,1-.938-.939v-1.6a6.948,6.948,0,0,0-13.9,0v1.6a.939.939,0,0,1-1.878,0v-1.6a8.826,8.826,0,0,1,17.651,0v1.6A.939.939,0,0,1,5627.251,2428.631Z" transform="translate(-5610.539 -2417.268)" fill="#fff"/></g><g transform="translate(2.337)"><path d="M5624.5,2379.718a6.488,6.488,0,1,1,6.488-6.488A6.5,6.5,0,0,1,5624.5,2379.718Zm0-11.1a4.61,4.61,0,1,0,4.61,4.611A4.617,4.617,0,0,0,5624.5,2368.62Z" transform="translate(-5618.008 -2366.742)" fill="#fff"/></g></g></g><g transform="translate(423.514 167.205)"><path d="M2282.931,1407.949h-2.106v-2.808h2.106Zm0-8.425h-2.106v-2.808h2.106Zm-2.32-8.31c-.091-.9-.214-1.817-.364-2.714l2.077-.348c.158.942.286,1.9.382,2.85Zm-1.616-8.042c-.266-.87-.564-1.741-.886-2.59l1.969-.747c.339.892.651,1.808.93,2.722Zm-3.153-7.568c-.43-.8-.891-1.6-1.373-2.367l1.787-1.115c.506.81.99,1.646,1.441,2.486Zm-4.564-6.813c-.577-.7-1.185-1.395-1.806-2.059l1.538-1.439c.652.7,1.29,1.424,1.9,2.161Zm-5.8-5.806c-.7-.58-1.433-1.143-2.169-1.673l1.231-1.709c.772.557,1.539,1.148,2.277,1.756Zm-6.811-4.579c-.8-.432-1.628-.843-2.455-1.221l.876-1.916c.868.4,1.736.829,2.578,1.282Zm-7.573-3.167c-.868-.267-1.757-.508-2.643-.717l.485-2.05c.929.22,1.864.473,2.775.753Zm-8.04-1.626c-.9-.092-1.82-.156-2.732-.19l.079-2.1c.957.036,1.922.1,2.868.2Zm-8.4-.4c-.952-.087-1.912-.206-2.854-.354l.328-2.081c.9.141,1.81.254,2.717.337Zm-8.462-1.617c-.916-.27-1.834-.574-2.73-.9l.728-1.976c.854.313,1.728.6,2.6.861Zm-7.983-3.238c-.844-.443-1.685-.92-2.5-1.417l1.1-1.8c.775.474,1.576.928,2.38,1.349Zm-7.2-4.725c-.743-.6-1.476-1.229-2.179-1.875l1.424-1.551c.67.615,1.367,1.216,2.075,1.786Zm-6.152-6.028c-.614-.731-1.212-1.492-1.777-2.261l1.7-1.247c.539.733,1.108,1.458,1.693,2.154Zm-4.874-7.106c-.461-.837-.9-1.7-1.306-2.565l1.907-.894c.386.823.8,1.645,1.243,2.443Zm-3.4-7.922c-.289-.909-.55-1.841-.78-2.768l2.045-.5c.217.883.468,1.769.742,2.635Zm-1.788-8.427c-.1-.947-.181-1.911-.226-2.866l2.1-.1c.043.909.115,1.828.216,2.73Zm1.832-8.53h-2.106v-2.808h2.106Zm0-8.425h-2.106v-2.808h2.106Zm0-8.425h-2.106v-2.808h2.106Zm0-8.425h-2.106v-2.808h2.106Zm0-8.425h-2.106v-2.808h2.106Zm0-8.424h-2.106v-2.809h2.106Zm0-8.425h-2.106v-2.808h2.106Zm0-8.424h-2.106v-2.808h2.106Z" transform="translate(-2194.528 -1243.837)" fill="#fff"/></g><g transform="translate(162.068 51.323)"><g transform="translate(198.987 457.121)"><path d="M2016.6,2215.952l16.826,1.8.328,10.454-15.081-.664C2018.089,2223.862,2017.236,2219.348,2016.6,2215.952Z" transform="translate(-2016.595 -2215.952)" fill="#ff9e8c"/></g><g transform="translate(199.817 468.712)"><path d="M2037.827,2262.112l-.246-12.476-15.081-.664.356,14.11Z" transform="translate(-2021.257 -2248.973)" fill="#ebf2ff"/><path d="M2127.56,2310.331H2118.3c-.642-6.94-2.836-9.586-2.913-9.681,1.414.239,3.026.517,4.771.822C2126.177,2302.518,2127.037,2307.64,2127.56,2310.331Z" transform="translate(-2081.54 -2282.51)" fill="#ffc861"/><path d="M2026.083,2315.147h-7.123l.825-7.077A7.124,7.124,0,0,1,2026.083,2315.147Z" transform="translate(-2018.96 -2287.325)" fill="#ffc861"/></g><g transform="translate(95.13 458.353)"><path d="M1739.089,2219.463h-16.921l-1.44,10.359h15.4Q1737.584,2224.423,1739.089,2219.463Z" transform="translate(-1720.728 -2219.463)" fill="#ff9e8c"/></g><g transform="translate(64.289 468.712)"><path d="M1719.779,2263.525l-3.009-6.262,1.389-8.291h15.4l-1.824,14.11Z" transform="translate(-1687.319 -2248.973)" fill="#ebf2ff"/><path d="M1632.87,2310.331h9.256c.642-6.94,2.837-9.586,2.914-9.681-1.414.239-3.026.517-4.77.822C1634.253,2302.518,1633.393,2307.64,1632.87,2310.331Z" transform="translate(-1632.87 -2282.51)" fill="#ffc861"/><path d="M1743.68,2315.147h7.122l-.825-7.077A7.124,7.124,0,0,0,1743.68,2315.147Z" transform="translate(-1704.783 -2287.325)" fill="#ffc861"/><g transform="translate(0.001 8.29)"><path d="M2055.724,2292.12c-.642-6.939-2.836-9.585-2.914-9.681-3.552-.611-5.855-.989-5.855-.989l-11.426-8.86s-4.563,5.82-14.971,5.82l-.772,6.635a7.124,7.124,0,0,1,6.3,7.076h-7.122v3.96h46.018v-3.96Z" transform="translate(-1883.434 -2272.59)"/><path d="M1678.067,2285.045l-.772-6.635c-10.408,0-14.971-5.82-14.971-5.82l-11.426,8.86s-2.3.378-5.855.989c-.077.1-2.271,2.742-2.913,9.681h-9.256v3.96h46.018v-3.96h-7.122A7.124,7.124,0,0,1,1678.067,2285.045Z" transform="translate(-1632.873 -2272.59)"/></g></g><g transform="translate(96.569 235.677)"><path d="M1842.463,1722.747a10.818,10.818,0,0,0,.054-1.491l.655-110.71q.059-1.094.013-2.17c0-.039,0-.07-.006-.1l.054-.022V1585.1h-94.5l-1.724,23.925c-.106.717-.18,1.437-.219,2.167l-11.136,110.151a10.8,10.8,0,0,0-.105,1.488l-10.715,84.946,23.8,2.613c10.942-36.251,11.955-70.8,17.9-98.262,6.893-26.81,19.2-64.453,25.161-85.445h6.148c4.014,22.158,11.266,56.933,14.944,82.117,2.989,27.935,1.311,64.38,8.33,101.589l22.954-2.044Z" transform="translate(-1724.829 -1585.105)" fill="#403883"/><path d="M1882.744,1701.621a69.4,69.4,0,0,1,7.458-.825q3.728-.232,7.457-.228t7.458.225a68.351,68.351,0,0,1,7.457.828,68.352,68.352,0,0,1-7.457.828q-3.729.231-7.458.225t-7.457-.228A69.277,69.277,0,0,1,1882.744,1701.621Z" transform="translate(-1827.311 -1660.038)"/></g><g transform="translate(95.121 466.942)"><rect width="2.106" height="15.275" transform="translate(0 2.095) rotate(-84.041)"/></g><g transform="translate(201.039 468.323)"><rect width="15.084" height="2.106" transform="translate(0 0.292) rotate(-1.11)"/></g><path d="M1787.4,1622.46l95.8-8.505v4.787l-96.711,14.274Z" transform="translate(-1668.275 -1368.151)" fill="#403883" opacity="0.6" style="mix-blend-mode:multiply;isolation:isolate"/><path d="M1882.7,998.95c-.729-13.392-4.434-29.526-4.434-29.526-1.614-7.927-26.622-9.035-37.432,0s-2.42,22.265.857,32.914c.13.422.263.829.4,1.23l3.01,37.548,32.153-6.772-2.739-16.436C1882.421,1016.018,1883.264,1009.325,1882.7,998.95Z" transform="translate(-1700.075 -945.736)" fill="#ff9e8c"/><path d="M1935.51,1126.289l-7.821-5.9a30.874,30.874,0,0,0,6.659-1.071C1934.889,1122.564,1935.51,1126.289,1935.51,1126.289Z" transform="translate(-1759.911 -1047.142)" fill="#ff9e8c" opacity="0.6" style="mix-blend-mode:multiply;isolation:isolate"/><path d="M1869.594,926a12.068,12.068,0,0,0-1.423-3.616,9.676,9.676,0,0,0-1.191-1.6,9.542,9.542,0,0,0-1.5-1.346,10.651,10.651,0,0,0-1.75-1.016,11.085,11.085,0,0,0-1.91-.646,12.059,12.059,0,0,0-3.965-.256,12.682,12.682,0,0,0-3.807.966,15.462,15.462,0,0,0-3.317,1.96,16.652,16.652,0,0,0-1.813,1.652c3.673-14.734-19.312-7.881-26.174,3.842-.017-.207-.04-.412-.072-.616a9.716,9.716,0,0,0-1.187-3.3,16.025,16.025,0,0,0-1-1.408,12.317,12.317,0,0,0-1.237-1.2,13.873,13.873,0,0,0,.485,1.621c.153.53.316,1.043.487,1.545a24.511,24.511,0,0,1,.717,3.012,12.293,12.293,0,0,1,.146,2.767,5.889,5.889,0,0,0-2.476-1.18,6.92,6.92,0,0,0-3.743.3,7.5,7.5,0,0,0-2.984,1.958c1.2-.1,2.291-.28,3.342-.341a10.932,10.932,0,0,1,2.95.139,7.058,7.058,0,0,1,1.635.571,10.162,10.162,0,0,0-5.949,17.628c1.528,1.855,4.392,6.149,6.839,14.4.547,2.678,1.211,5.324,1.9,7.793,1.955,7.025,4.094,12.619,4.231,13.442,5.207,2.374,13.832.027,17.28-2.753,6.777-5.465,8.481-14.592,8.866-16.827.424-2.464-.768-6.1,1.679-5.892,7.577.64,6.8-11.2,4.412-16.939a13.277,13.277,0,0,0,3.344-1.782c.3,1.437.644,3.111.644,3.111,10.134-3.156,6.416-26.424-8.626-22.2l.09-.03a13.65,13.65,0,0,1,3.456-.6,12.133,12.133,0,0,1,3.437.308,9.785,9.785,0,0,1,3.121,1.327,9.906,9.906,0,0,1,2.494,2.347,13.539,13.539,0,0,1,1.745,3.1,26.048,26.048,0,0,1,1.153,3.517A14.58,14.58,0,0,0,1869.594,926Z" transform="translate(-1683.89 -913.713)"/><g transform="translate(163.827 36.865)"><path d="M1925.081,1035.934c-14.587-8.688-8.463-26.439,1.8-11.3A24.245,24.245,0,0,1,1925.081,1035.934Z" transform="translate(-1916.433 -1018.733)" fill="#ff9e8c"/><path d="M1928.108,1032.606a4.342,4.342,0,0,0-2.532-2.185,4.766,4.766,0,0,0-1.916-.2,5.047,5.047,0,0,0-1.116.234,3.177,3.177,0,0,0-1.006.514,12.1,12.1,0,0,1,2.116.077c.112.014.222.032.332.05a3.976,3.976,0,0,0,.451,3.6c.976,1.714,2.589,2.635,3.6,2.058S1929.083,1034.319,1928.108,1032.606Z" transform="translate(-1919.746 -1026.172)" fill="#ff1e00" opacity="0.3" style="mix-blend-mode:multiply;isolation:isolate"/></g><path d="M1826.406,1155.467a19.781,19.781,0,0,0-19.451-7.586l-15.307,1.343-4.367-6.848-37.388,3.3-2.007,7.389-16.392,1.437-.194.017-.058,0a19.775,19.775,0,0,0-17.067,14.63s-19.2,74.276-19.2,74.276,21.6,9.954,22.254,8.474c.249-.562,5.215-10.714,11.279-23.088l.9,8.443-5.4,79.521,103.431-9.183-6.113-81.211,2.374-20.835c14.794,13.236,30.363,27.176,30.969,27.761,1.165,1.126,17.442-16.212,17.442-16.212Z" transform="translate(-1608.882 -1062.109)" fill="#ffc861"/><g transform="translate(214.806 62.177)"><path d="M2176.242,1121.513c-.605-.177-2.727-.829-3.344-1,.027-.163.055-.329.083-.5a3.075,3.075,0,0,0-2.227-3.793c-.846-.248-2.312-.7-3.167-.924a2.957,2.957,0,0,0-2.214-2.267c-2.863-.838-5.3-1.349-5.3-1.349.9-5.149,2.851-10.8,3.3-13.736,1-6.549-3.432-9.306-4.671-5.1s-6.346,22.7-6.346,22.7c-.3.966-6.557,16.357-2.359,22.209l-3.636,5.95-.045-.022-4.242,6.913-11.459,18.676-2.095-2.825-18.772,20.766c6.52,5.841,11.662,10.453,13.435,12.057.207.2.421.4.643.587a12,12,0,0,0,18.949-4.918l14.918-36.828,3.036-7.494,3.355-8.191c5.375-2.106,9.163-8.145,11.168-13.488,1.2.174,1.936-.041,2.277-1.716,0,0,.207-1.078.471-2.709A2.431,2.431,0,0,0,2176.242,1121.513Z" transform="translate(-2092.869 -1090.843)" fill="#ff9e8c"/><g transform="translate(0 59.275)" opacity="0.3" style="mix-blend-mode:multiply;isolation:isolate"><path d="M2072.091,1291.024l-10.432-9.336,2.474-21.984Z" transform="translate(-2061.659 -1259.705)" fill="#ff1e00"/></g></g><g transform="translate(252.555 133.001)"><path d="M2176.012,1308.691l-6.814-8.482,4.668-7.605Z" transform="translate(-2169.198 -1292.603)" fill="#ff9e8c" opacity="0.6" style="mix-blend-mode:multiply;isolation:isolate"/></g><g transform="translate(0 119.013)"><path d="M1558.068,1323.528q.2-.386.376-.786c1.044-2.156,4.109-8.425,7.991-16.356l-25.26-12.072-1.554,6.01-17.438-9.065-9.167-4.765-9.042-4.7a15.015,15.015,0,0,0-3.45-6.548c-6.332-7.416-11.177-13.151-11.177-13.151s-3.582-6.521-4.771-8.6-5.6.1-1.593,7.636a35.389,35.389,0,0,1,3.513,10.359s-3.174-.453-5.667-.734c0,0-19.782-2.95-24.132-3.508s-3.606,4.605,2.79,6.327c2.289.616,7.043,1.8,11.452,2.885-7.094-.244-15.476-.621-17.945-.725-4.372-.183-4.464,4.487.358,5.221-4.372-.379-3.434,4.744,3.028,6.2,1.754.4,9.139,2.35,13.006,3.09-2.546-.111-8.068-.372-9.028-.4-3.35-.093-2.423,3.762,2.565,4.581,3.812.627,18.736,2.476,18.736,2.476,4.573.564,10.613.272,15.274-1.982l7.57,5.693,8.284,6.23,27.428,20.628a12,12,0,0,0,17.853-3.951Z" transform="translate(-1449.724 -1252.754)" fill="#ff9e8c"/><g transform="translate(114.215 15.754)" opacity="0.3" style="mix-blend-mode:multiply;isolation:isolate"><path d="M1780.46,1329.655c-3.528,7.2-3.3,6.736-5.364,10.962l2.015-42.983Z" transform="translate(-1775.097 -1297.634)" fill="#ff1e00"/></g></g><path d="M1841.245,1165.62l46.8-4.1-4.695,2.759-36.3,3.269Z" transform="translate(-1703.811 -1074.531)" fill="#ff1e00" opacity="0.3" style="mix-blend-mode:multiply;isolation:isolate"/><rect width="3.892" height="11.538" transform="translate(272.191 117.089) rotate(-67.752)"/><circle cx="5.908" cy="5.908" r="5.908" transform="translate(266.262 108.696)"/><circle cx="4.405" cy="4.405" r="4.405" transform="translate(267.765 110.199)" fill="#fff"/><g transform="translate(82.135 162.546)"><g opacity="0.6" style="mix-blend-mode:multiply;isolation:isolate"><path d="M1691.473,1380.807l-2.708,10.442-5.054-14.479Z" transform="translate(-1683.71 -1376.771)" fill="#ff9e8c"/></g></g></g><rect width="97.506" height="97.506" rx="30" transform="translate(542.45 399.194)" fill="#ebf2ff"/><path d="M2375.557,1807.406a15.37,15.37,0,0,0-4.485.666c1.875-16.048-13.264-29.817-29.052-26.489a46.19,46.19,0,0,0-8.032-17.447c-21.09-29.532-68.941-22.177-80.659,11.388a32.18,32.18,0,0,0-32.691,8.635c-19.289,19.158-4.16,54.941,23.285,54.05h131.633a15.392,15.392,0,0,0,13.319-7.671C2394.909,1820.678,2387.163,1807.112,2375.557,1807.406Z" transform="translate(-1782.329 -1402.296)" fill="#ffc861"/><g transform="translate(426.623 415.698)"><path d="M2217.937,2015.811l-14.553-11.917,16.326-19.516-13.971-6.766,49.942-25.873-10.648,55.059-11.245-12.054Zm-11.573-12.2,11.209,9.178,16.041-21.32,10.135,10.865,9.036-46.726-42.347,21.939,12.617,6.11Z" transform="translate(-2203.383 -1951.739)" fill="#fff"/></g><g transform="translate(-1047.032 -2041.631)" opacity="0.3"><circle cx="2" cy="2" r="2" transform="translate(1738 2096)" fill="#fff"/><circle cx="2" cy="2" r="2" transform="translate(1752 2096)" fill="#fff"/><circle cx="2" cy="2" r="2" transform="translate(1766 2096)" fill="#fff"/><circle cx="2" cy="2" r="2" transform="translate(1780 2096)" fill="#fff"/><circle cx="2" cy="2" r="2" transform="translate(1794 2096)" fill="#fff"/><circle cx="2" cy="2" r="2" transform="translate(1808 2096)" fill="#fff"/><circle cx="2" cy="2" r="2" transform="translate(1822 2096)" fill="#fff"/><circle cx="2" cy="2" r="2" transform="translate(1738 2110)" fill="#fff"/><circle cx="2" cy="2" r="2" transform="translate(1752 2110)" fill="#fff"/><circle cx="2" cy="2" r="2" transform="translate(1766 2110)" fill="#fff"/><circle cx="2" cy="2" r="2" transform="translate(1780 2110)" fill="#fff"/><circle cx="2" cy="2" r="2" transform="translate(1794 2110)" fill="#fff"/><circle cx="2" cy="2" r="2" transform="translate(1808 2110)" fill="#fff"/><circle cx="2" cy="2" r="2" transform="translate(1822 2110)" fill="#fff"/><circle cx="2" cy="2" r="2" transform="translate(1738 2124)" fill="#fff"/><circle cx="2" cy="2" r="2" transform="translate(1752 2124)" fill="#fff"/><circle cx="2" cy="2" r="2" transform="translate(1766 2124)" fill="#fff"/><circle cx="2" cy="2" r="2" transform="translate(1780 2124)" fill="#fff"/><circle cx="2" cy="2" r="2" transform="translate(1794 2124)" fill="#fff"/><circle cx="2" cy="2" r="2" transform="translate(1808 2124)" fill="#fff"/><circle cx="2" cy="2" r="2" transform="translate(1822 2124)" fill="#fff"/><circle cx="2" cy="2" r="2" transform="translate(1738 2138)" fill="#fff"/><circle cx="2" cy="2" r="2" transform="translate(1752 2138)" fill="#fff"/><circle cx="2" cy="2" r="2" transform="translate(1766 2138)" fill="#fff"/><circle cx="2" cy="2" r="2" transform="translate(1780 2138)" fill="#fff"/><circle cx="2" cy="2" r="2" transform="translate(1794 2138)" fill="#fff"/><circle cx="2" cy="2" r="2" transform="translate(1808 2138)" fill="#fff"/><circle cx="2" cy="2" r="2" transform="translate(1822 2138)" fill="#fff"/><circle cx="2" cy="2" r="2" transform="translate(1738 2152)" fill="#fff"/><circle cx="2" cy="2" r="2" transform="translate(1752 2152)" fill="#fff"/><circle cx="2" cy="2" r="2" transform="translate(1766 2152)" fill="#fff"/><circle cx="2" cy="2" r="2" transform="translate(1780 2152)" fill="#fff"/><circle cx="2" cy="2" r="2" transform="translate(1794 2152)" fill="#fff"/><circle cx="2" cy="2" r="2" transform="translate(1808 2152)" fill="#fff"/><circle cx="2" cy="2" r="2" transform="translate(1822 2152)" fill="#fff"/><circle cx="2" cy="2" r="2" transform="translate(1738 2166)" fill="#fff"/><circle cx="2" cy="2" r="2" transform="translate(1752 2166)" fill="#fff"/><circle cx="2" cy="2" r="2" transform="translate(1766 2166)" fill="#fff"/><circle cx="2" cy="2" r="2" transform="translate(1780 2166)" fill="#fff"/><circle cx="2" cy="2" r="2" transform="translate(1794 2166)" fill="#fff"/><circle cx="2" cy="2" r="2" transform="translate(1808 2166)" fill="#fff"/><circle cx="2" cy="2" r="2" transform="translate(1822 2166)" fill="#fff"/></g><g transform="translate(552.835 77.666)"><rect width="187.608" height="146.372" rx="13.046" transform="translate(0)" fill="#3c89ff"/><g transform="translate(15.608 10.012)"><path d="M2611.206,1024.894a3.807,3.807,0,1,1,3.808-3.807A3.811,3.811,0,0,1,2611.206,1024.894Zm0-7.112a3.305,3.305,0,1,0,3.305,3.305A3.309,3.309,0,0,0,2611.206,1017.782Z" transform="translate(-2607.399 -1017.28)" fill="#fefef4"/><g transform="translate(13.821)"><path d="M2650.579,1024.894a3.807,3.807,0,1,1,3.807-3.807A3.811,3.811,0,0,1,2650.579,1024.894Zm0-7.112a3.305,3.305,0,1,0,3.3,3.305A3.309,3.309,0,0,0,2650.579,1017.782Z" transform="translate(-2646.771 -1017.28)" fill="#fefef4"/></g><g transform="translate(27.641)"><path d="M2689.95,1024.894a3.807,3.807,0,1,1,3.808-3.807A3.811,3.811,0,0,1,2689.95,1024.894Zm0-7.112a3.305,3.305,0,1,0,3.305,3.305A3.309,3.309,0,0,0,2689.95,1017.782Z" transform="translate(-2686.143 -1017.28)" fill="#fefef4"/></g></g><g transform="translate(0 28.399)"><rect width="187.608" height="0.502" fill="#fefef4"/></g><circle cx="16.498" cy="16.498" r="16.498" transform="translate(77.306 129.946)" fill="#fff"/><circle cx="10.18" cy="10.18" r="10.18" transform="translate(80.503 140.935) rotate(-22.5)" fill="#3c89ff"/></g><g transform="translate(620.84 243.783)"><path d="M2818.448,1642.762h-2.808v-2.106h2.808Zm-8.425,0h-2.808v-2.106h2.808Zm-8.425,0h-2.808v-2.106h2.808Zm-8.424,0h-2.808v-2.106h2.808Zm-8.425,0h-2.808v-2.106h2.808Zm-8.425,0h-2.808v-2.106h2.808Zm-8.425,0h-2.808v-2.106h2.808Zm-8.425,0h-2.808v-2.106h2.808Zm64.7-.282-.255-2.091c.9-.11,1.8-.255,2.692-.432l.412,2.066C2826.09,1642.21,2825.131,1642.364,2824.179,1642.48Zm8.406-2.016-.722-1.978c.849-.31,1.7-.657,2.521-1.031l.871,1.918C2834.381,1639.768,2833.484,1640.135,2832.584,1640.463Zm7.724-3.866-1.15-1.764c.757-.495,1.507-1.024,2.226-1.575l1.281,1.673C2841.9,1635.514,2841.111,1636.074,2840.308,1636.6Zm6.659-5.507-1.517-1.461c.628-.652,1.24-1.337,1.817-2.034l1.623,1.343C2848.279,1629.676,2847.632,1630.4,2846.968,1631.091Zm5.256-6.863-1.806-1.083c.466-.777.908-1.582,1.314-2.391l1.883.943C2853.185,1622.553,2852.718,1623.4,2852.224,1624.228Zm3.575-7.875-2-.646c.277-.861.525-1.745.736-2.625l2.048.491C2856.355,1614.5,2856.093,1615.44,2855.8,1616.352Zm1.694-8.475-2.1-.176c.075-.9.117-1.818.126-2.725l2.106.019C2857.618,1605.954,2857.573,1606.924,2857.494,1607.877Zm.134-8.508h-2.106v-2.808h2.106Zm0-8.425h-2.106v-2.808h2.106Zm0-8.425h-2.106v-2.8l2.106-.011Zm-2.527-8.24c-.139-.895-.312-1.8-.518-2.677l2.051-.478c.218.933.4,1.887.548,2.834Zm-2.156-7.874c-.337-.839-.71-1.675-1.11-2.488l1.889-.931c.424.86.819,1.746,1.175,2.634Zm-3.882-7.177c-.518-.743-1.071-1.475-1.644-2.175l1.631-1.332c.606.742,1.191,1.516,1.74,2.3Zm-5.4-6.126c-.671-.608-1.375-1.2-2.09-1.752l1.291-1.664c.757.588,1.5,1.212,2.213,1.855Zm-6.638-4.76c-.791-.441-1.609-.857-2.432-1.237l.882-1.913c.872.4,1.738.843,2.575,1.31Zm-7.542-3.138c-.871-.25-1.761-.469-2.647-.652l.426-2.063c.938.193,1.881.426,2.8.691Zm-8.053-1.345c-.916-.049-1.853-.039-2.775-.06l.048-2.105c.943.022,1.9.013,2.838.062Zm-8.515-.621c-.944-.165-1.894-.369-2.823-.6l.52-2.041c.877.224,1.774.416,2.666.571Zm-8.29-2.451c-.881-.375-1.759-.788-2.609-1.229l.969-1.87c.8.416,1.633.806,2.464,1.16Zm-7.514-4.261c-.774-.564-1.537-1.164-2.267-1.786l1.365-1.6c.69.587,1.411,1.154,2.142,1.687Zm-6.367-5.843c-.628-.723-1.237-1.48-1.81-2.249l1.69-1.258c.541.727,1.116,1.442,1.71,2.125Zm-4.9-7.125c-.451-.849-.874-1.724-1.257-2.6l1.929-.844c.363.829.762,1.656,1.188,2.457Zm-3.16-8.052c-.247-.926-.459-1.873-.634-2.817l2.071-.384c.165.891.366,1.786.6,2.66Zm-1.254-8.551q-.019-.623-.02-1.252v-1.589h2.106v1.589q0,.594.019,1.184Zm2.087-8.458h-2.106v-2.808h2.106Zm0-8.425h-2.106v-2.808h2.106Zm0-8.425h-2.106v-2.808h2.106Zm0-8.424h-2.106v-2.809h2.106Zm0-8.425h-2.106v-2.808h2.106Z" transform="translate(-2756.667 -1461.99)" fill="#fff"/></g></g><g transform="translate(1013.543 551.641)"><g transform="translate(0 0)"><rect width="227.576" height="154.096" rx="9" transform="translate(0 6.928)" fill="#3c89ff"/><path d="M9,0H218.576a9,9,0,0,1,9,9V140.45a0,0,0,0,1,0,0H0a0,0,0,0,1,0,0V9A9,9,0,0,1,9,0Z" transform="translate(0 0)" fill="#fff"/><rect width="212.46" height="124.369" transform="translate(7.558 7.474)" fill="#fff"/><rect width="51.226" height="27.712" transform="translate(88.175 161.024)" fill="#3c89ff"/><rect width="90.694" height="7.558" transform="translate(68.441 188.737)" fill="#2264c4"/><circle cx="4.829" cy="4.829" r="4.829" transform="translate(108.959 145.489)" fill="#fff"/><path d="M4650.728,2553.936l-51.226,7.558v-19.315h51.226Z" transform="translate(-4511.328 -2381.155)" fill="#2264c4"/><circle cx="2.867" cy="2.867" r="2.867" transform="matrix(0.23, -0.973, 0.973, 0.23, 12.69, 18.186)" fill="#ff4731"/><circle cx="2.867" cy="2.867" r="2.867" transform="matrix(0.23, -0.973, 0.973, 0.23, 22.987, 18.186)" fill="#ffc861"/><circle cx="2.867" cy="2.867" r="2.867" transform="matrix(0.23, -0.973, 0.973, 0.23, 33.285, 18.186)" fill="#00b25e"/></g><g transform="translate(77.26 46.061)"><g transform="translate(0 14.655)"><path d="M4621.654,2239.281H4563.9a.9.9,0,0,1-.815-1.271l14.079-30.746a.9.9,0,0,1,.816-.523h57.183a.9.9,0,0,1,.82,1.258l-13.5,30.746A.9.9,0,0,1,4621.654,2239.281Zm-56.359-1.794h55.773l12.717-28.952h-55.232Z" transform="translate(-4563 -2206.74)" fill="#3c89ff"/></g><g transform="translate(0 0)"><path d="M4563.9,2204.929a.9.9,0,0,1-.9-.9v-45.4a.9.9,0,0,1,.9-.9h19.54a.9.9,0,0,1,.811.515l2.058,4.37h35.923a.9.9,0,0,1,.9.9v4.633a.9.9,0,1,1-1.794,0v-3.736h-35.6a.9.9,0,0,1-.812-.516l-2.057-4.369h-18.073v44.5A.9.9,0,0,1,4563.9,2204.929Z" transform="translate(-4563 -2157.734)" fill="#3c89ff"/></g></g><g transform="translate(170.236 17.319)"><g transform="translate(24.088 0)"><rect width="58.412" height="101.075" rx="20"/><path d="M4968.865,2167.52a2.4,2.4,0,0,1-2.392-2.392v-89.113a2.4,2.4,0,0,1,2.392-2.392h4.35a1.3,1.3,0,0,1,1.295,1.3,5.09,5.09,0,0,0,5.084,5.083h24.993a5.089,5.089,0,0,0,5.083-5.083,1.3,1.3,0,0,1,1.3-1.3h4.351a2.4,2.4,0,0,1,2.392,2.392v89.113a2.4,2.4,0,0,1-2.392,2.392Z" transform="translate(-4962.884 -2070.033)" fill="#fff"/><g transform="translate(20.263 4.061)"><path d="M5048.722,2075.2h-11.857a.972.972,0,0,0,0,1.944h11.857a.972.972,0,1,0,0-1.944Z" transform="translate(-5031.808 -2075.201)" fill="#353535"/><circle cx="0.972" cy="0.972" r="0.972" fill="#353535"/></g></g><g transform="translate(34.253 25.68)"><path d="M5000.594,2149.289H4989.36a.9.9,0,0,1,0-1.794h11.233a.9.9,0,0,1,0,1.794Z" transform="translate(-4988.463 -2147.495)" fill="#3c89ff"/><g transform="translate(0 5.544)"><path d="M5007.763,2167.828h-18.4a.9.9,0,0,1,0-1.794h18.4a.9.9,0,1,1,0,1.794Z" transform="translate(-4988.463 -2166.034)" fill="#3c89ff"/></g><g transform="translate(0 11.087)"><path d="M5007.763,2186.366h-18.4a.9.9,0,0,1,0-1.794h18.4a.9.9,0,1,1,0,1.794Z" transform="translate(-4988.463 -2184.572)" fill="#3c89ff"/></g></g><g transform="translate(64.494 14.114)"><circle cx="12.733" cy="12.733" r="12.733" transform="translate(0 18.007) rotate(-45)" fill="#00b25e"/><g transform="translate(11.298 13.764)"><path d="M5132.7,2163.332h-.029a2.215,2.215,0,0,1-1.544-.7l-3.5-3.563a.9.9,0,1,1,1.28-1.257l3.512,3.575a.452.452,0,0,0,.284.145.434.434,0,0,0,.274-.132l6.28-6.294a.9.9,0,1,1,1.27,1.267l-6.266,6.281a2.211,2.211,0,0,1-1.531.673Z" transform="translate(-5127.37 -2154.846)" fill="#fff"/></g></g><g transform="translate(0 50.128)"><path d="M4929.256,2229.252h-55.337v33.928h37.156l6.14,6.14v-6.14h12.042Z" transform="translate(-4873.919 -2229.252)" fill="#cde8f9"/><g transform="translate(9.707 10.518)"><g transform="translate(7.293)"><path d="M4951.209,2266.217h-19.542a.9.9,0,1,1,0-1.794h19.542a.9.9,0,0,1,0,1.794Z" transform="translate(-4930.77 -2264.423)" fill="#fff"/></g><g transform="translate(0 5.587)"><path d="M4941.406,2284.9h-34.128a.9.9,0,0,1,0-1.794h34.128a.9.9,0,1,1,0,1.794Z" transform="translate(-4906.381 -2283.105)" fill="#fff"/></g><g transform="translate(0 11.173)"><path d="M4941.406,2303.58h-34.128a.9.9,0,0,1,0-1.794h34.128a.9.9,0,1,1,0,1.794Z" transform="translate(-4906.381 -2301.786)" fill="#fff"/></g></g></g></g></g></g></svg>