<svg xmlns="http://www.w3.org/2000/svg" width="95.332" height="79.615" viewBox="0 0 95.332 79.615">
  <g id="left-quote" transform="translate(95.332 79.615) rotate(180)" opacity="0.5">
    <g id="Group_1822" data-name="Group 1822" transform="translate(0)">
      <path id="Path_15808" data-name="Path 15808" d="M30.512,36.081a25.26,25.26,0,0,0-6.98-1.019,21.935,21.935,0,0,0-8.752,1.793C16.98,28.8,22.265,14.9,32.793,13.339a2.5,2.5,0,0,0,2.04-1.8l2.3-8.23A2.5,2.5,0,0,0,35.066.16,17.477,17.477,0,0,0,32.712,0C20.075,0,7.56,13.19,2.279,32.076-.821,43.156-1.73,59.814,5.906,70.3c4.273,5.867,10.507,9,18.529,9.313l.1,0a22.179,22.179,0,0,0,5.979-43.533Z" transform="translate(0)" fill="#0c2533" opacity="0.6"/>
      <path id="Path_15809" data-name="Path 15809" d="M43.845,46.555A22.231,22.231,0,0,0,30.511,36.081a25.258,25.258,0,0,0-6.979-1.019,21.94,21.94,0,0,0-8.753,1.793c2.2-8.054,7.485-21.951,18.014-23.516a2.5,2.5,0,0,0,2.04-1.8l2.3-8.23A2.5,2.5,0,0,0,35.066.16,17.455,17.455,0,0,0,32.712,0C20.075,0,7.56,13.19,2.278,32.076-.821,43.156-1.73,59.814,5.907,70.3c4.272,5.866,10.507,9,18.528,9.312l.1,0a22.179,22.179,0,0,0,19.311-33.06Z" transform="translate(48.626)" fill="#0c2533" opacity="0.6"/>
    </g>
  </g>
</svg>
