<svg xmlns="http://www.w3.org/2000/svg" width="137" height="116" viewBox="0 0 137 116"><path d="M56.088,8.832a20,20,0,0,1,23.823,0l34.42,25.52a20,20,0,0,1,0,32.132L79.912,92a20,20,0,0,1-23.823,0l-34.42-25.52a20,20,0,0,1,0-32.132Z" fill="#fd8f01"/><path d="M56.088,8.832a20,20,0,0,1,23.823,0l34.42,25.52a20,20,0,0,1,0,32.132L79.912,92a20,20,0,0,1-23.823,0l-34.42-25.52a20,20,0,0,1,0-32.132Z" transform="translate(1 15.165)" fill="#fd8f01" opacity="0.5"/><g transform="translate(46 28)"><path d="M19.75,18h-9a.75.75,0,0,0-.75.75V21H20.5V18.75A.75.75,0,0,0,19.75,18Z" transform="translate(-5.5 -6)" fill="#fff"/><path d="M10,32.25a.75.75,0,0,0,.75.75h9a.75.75,0,0,0,.75-.75V30H10Z" transform="translate(-5.5 -9)" fill="#fff"/><path d="M23.5,15.251a1.5,1.5,0,1,0,0-3H22.435a.742.742,0,0,1-.683-1.05,2.995,2.995,0,0,0-5.182-2.94.76.76,0,0,1-.8.293.744.744,0,0,1-.563-.63A4.5,4.5,0,0,0,6.25,8.5a4.453,4.453,0,0,0,.81,2.572.75.75,0,0,1,.052.773.765.765,0,0,1-.668.4H5.5a1.5,1.5,0,1,0,0,3H7A2.257,2.257,0,0,1,9.25,13h9a2.257,2.257,0,0,1,2.25,2.25Z" transform="translate(-4 -2.501)" fill="#fff"/><path d="M10,24H20.5v3H10Z" transform="translate(-5.5 -7.5)" fill="#fff"/><path d="M55.25,44h-9A2.257,2.257,0,0,0,44,46.25v6a2.257,2.257,0,0,0,2.25,2.25h2.092l-.5,2.07a.737.737,0,0,0,.135.645.75.75,0,0,0,.592.285h4.365a.75.75,0,0,0,.593-.285.737.737,0,0,0,.135-.645l-.5-2.07H55.25a2.257,2.257,0,0,0,2.25-2.25v-6A2.257,2.257,0,0,0,55.25,44ZM56,51.5H45.5V50H56Z" transform="translate(-14 -12.5)" fill="#fff"/><path d="M55.25,23h-9A2.257,2.257,0,0,0,44,25.25v6a2.257,2.257,0,0,0,2.25,2.25h2.092l-.5,2.07a.737.737,0,0,0,.135.645.75.75,0,0,0,.592.285h4.365a.75.75,0,0,0,.593-.285.736.736,0,0,0,.135-.645l-.5-2.07H55.25a2.257,2.257,0,0,0,2.25-2.25v-6A2.257,2.257,0,0,0,55.25,23ZM56,30.5H45.5V29H56Z" transform="translate(-14 -7.25)" fill="#fff"/><path d="M55.25,2h-9A2.257,2.257,0,0,0,44,4.25v6a2.257,2.257,0,0,0,2.25,2.25h2.092l-.5,2.07a.737.737,0,0,0,.135.645.75.75,0,0,0,.592.285h4.365a.75.75,0,0,0,.593-.285.736.736,0,0,0,.135-.645l-.5-2.07H55.25a2.257,2.257,0,0,0,2.25-2.25v-6A2.257,2.257,0,0,0,55.25,2ZM56,9.5H45.5V8H56Z" transform="translate(-14 -2)" fill="#fff"/><path d="M34.25,12.25v13.5H26v1.5h8.25v13.5A2.25,2.25,0,0,0,36.5,43H38V41.5H36.5a.75.75,0,0,1-.75-.75V27.25H38v-1.5H35.75V12.25a.75.75,0,0,1,.75-.75H38V10H36.5A2.25,2.25,0,0,0,34.25,12.25Z" transform="translate(-9.5 -4)" fill="#fff"/></g></svg>