<svg xmlns="http://www.w3.org/2000/svg" width="136" height="116" viewBox="0 0 136 116"><path d="M56.088,8.832a20,20,0,0,1,23.823,0l34.42,25.52a20,20,0,0,1,0,32.132L79.912,92a20,20,0,0,1-23.823,0l-34.42-25.52a20,20,0,0,1,0-32.132Z" fill="#0161cd"/><path d="M56.088,8.832a20,20,0,0,1,23.823,0l34.42,25.52a20,20,0,0,1,0,32.132L79.912,92a20,20,0,0,1-23.823,0l-34.42-25.52a20,20,0,0,1,0-32.132Z" transform="translate(0 15.165)" fill="#0161cd" opacity="0.5"/><g transform="translate(46 28)"><path d="M221.552,295.052v-4.237a7.672,7.672,0,0,0-2.864.777A7.172,7.172,0,0,0,221.552,295.052Z" transform="translate(-199.6 -265.13)" fill="#fff"/><path d="M211.148,264.367a8.784,8.784,0,0,1,3.22-.831V262h-3.587A10.7,10.7,0,0,0,211.148,264.367Z" transform="translate(-192.417 -238.95)" fill="#fff"/><path d="M210.783,226.5h3.587v-1.535a8.75,8.75,0,0,1-3.221-.83A10.7,10.7,0,0,0,210.783,226.5Z" transform="translate(-192.418 -204.549)" fill="#fff"/><path d="M218.688,178.321a7.665,7.665,0,0,0,2.864.777v-4.237A7.176,7.176,0,0,0,218.688,178.321Z" transform="translate(-199.6 -159.78)" fill="#fff"/><path d="M196.518,306.351a7.7,7.7,0,0,0,2.907,1.832,8.606,8.606,0,0,1-1.834-2.728A7.67,7.67,0,0,0,196.518,306.351Z" transform="translate(-179.457 -278.431)" fill="#fff"/><path d="M199.423,176.714a7.7,7.7,0,0,0-2.907,1.832,7.665,7.665,0,0,0,1.073.9A8.606,8.606,0,0,1,199.423,176.714Z" transform="translate(-179.455 -161.464)" fill="#fff"/><path d="M175.144,206.977a8.771,8.771,0,0,1-1.4-1.124,7.639,7.639,0,0,0-1.5,4.037h2.427A11.709,11.709,0,0,1,175.144,206.977Z" transform="translate(-157.398 -187.938)" fill="#fff"/><path d="M286.608,178.548a7.7,7.7,0,0,0-2.908-1.834,8.608,8.608,0,0,1,1.837,2.735A7.581,7.581,0,0,0,286.608,178.548Z" transform="translate(-258.666 -161.464)" fill="#fff"/><path d="M174.665,262h-2.427a7.639,7.639,0,0,0,1.5,4.038,8.751,8.751,0,0,1,1.405-1.123A11.708,11.708,0,0,1,174.665,262Z" transform="translate(-157.398 -238.95)" fill="#fff"/><path d="M283.7,308.114a7.7,7.7,0,0,0,2.908-1.834,7.587,7.587,0,0,0-1.071-.9A8.61,8.61,0,0,1,283.7,308.114Z" transform="translate(-258.666 -278.362)" fill="#fff"/><path d="M308.009,264.906a8.666,8.666,0,0,1,1.4,1.129,7.64,7.64,0,0,0,1.5-4.035h-2.427a11.714,11.714,0,0,1-.477,2.906Z" transform="translate(-280.752 -238.95)" fill="#fff"/><path d="M308.01,207.008a11.712,11.712,0,0,1,.477,2.905h2.427a7.639,7.639,0,0,0-1.5-4.035A8.673,8.673,0,0,1,308.01,207.008Z" transform="translate(-280.753 -187.96)" fill="#fff"/><path d="M262,174.861V179.1a7.577,7.577,0,0,0,2.867-.771A7.173,7.173,0,0,0,262,174.861Z" transform="translate(-238.951 -159.78)" fill="#fff"/><path d="M265.587,262H262v1.533a8.692,8.692,0,0,1,3.223.824A10.7,10.7,0,0,0,265.587,262Z" transform="translate(-238.951 -238.95)" fill="#fff"/><path d="M265.223,224.231a8.668,8.668,0,0,1-3.223.824v1.533h3.587A10.7,10.7,0,0,0,265.223,224.231Z" transform="translate(-238.951 -204.635)" fill="#fff"/><path d="M52.006,29.5a2.968,2.968,0,0,0-2.916,2.436H44.809a12.3,12.3,0,0,0-3.271-7.827l3.036-3.036a2.962,2.962,0,1,0-.764-.788l-3.051,3.051a12.3,12.3,0,0,0-7.831-3.192V15.86a2.966,2.966,0,1,0-1.1-.035v4.327A12.3,12.3,0,0,0,24.1,23.413l-3.034-3.034a2.958,2.958,0,1,0-.794.758l3.055,3.055a12.3,12.3,0,0,0-3.2,7.837H15.871a2.966,2.966,0,1,0-.043,1.1H20.14a12.3,12.3,0,0,0,3.247,7.714L20.37,43.856a2.962,2.962,0,1,0,.764.788l3.03-3.03a12.3,12.3,0,0,0,7.759,3.207v4.264a2.964,2.964,0,1,0,1.1,0V44.821a12.3,12.3,0,0,0,7.812-3.257l3.019,3.019a2.963,2.963,0,1,0,.783-.77l-3.028-3.027a12.3,12.3,0,0,0,3.2-7.753H49.1A2.964,2.964,0,1,0,52.006,29.5ZM39.122,38.191a.548.548,0,0,1-.1.11h0a8.761,8.761,0,0,1-6.274,2.937.545.545,0,0,1-.07,0l-.034,0-.175,0-.175,0-.034,0a.546.546,0,0,1-.07,0A8.761,8.761,0,0,1,25.92,38.3l0,0a.547.547,0,0,1-.094-.108,8.763,8.763,0,0,1,0-11.453.547.547,0,0,1,.094-.108l0,0A8.761,8.761,0,0,1,32.2,23.689a.541.541,0,0,1,.1,0l.17,0,.17,0a.543.543,0,0,1,.1,0,8.761,8.761,0,0,1,6.281,2.937h0a.548.548,0,0,1,.1.11,8.763,8.763,0,0,1,0,11.453Z" transform="translate(-9.971 -9.963)" fill="#fff"/><path d="M262,290.785v4.24a7.174,7.174,0,0,0,2.867-3.469,7.572,7.572,0,0,0-2.867-.771Z" transform="translate(-238.951 -265.102)" fill="#fff"/></g></svg>