<svg xmlns="http://www.w3.org/2000/svg" width="136" height="116" viewBox="0 0 136 116"><path d="M56.088,8.832a20,20,0,0,1,23.823,0l34.42,25.52a20,20,0,0,1,0,32.132L79.912,92a20,20,0,0,1-23.823,0l-34.42-25.52a20,20,0,0,1,0-32.132Z" fill="#04dc8b"/><path d="M56.088,8.832a20,20,0,0,1,23.823,0l34.42,25.52a20,20,0,0,1,0,32.132L79.912,92a20,20,0,0,1-23.823,0l-34.42-25.52a20,20,0,0,1,0-32.132Z" transform="translate(0 15.165)" fill="#04dc8b" opacity="0.5"/><g transform="translate(50 30)"><path d="M33.882,6.48a6.951,6.951,0,0,1-4.268-4.331A3.137,3.137,0,0,0,26.646,0H9.354A3.137,3.137,0,0,0,6.386,2.148,6.948,6.948,0,0,1,2.119,6.48,3.171,3.171,0,0,0,0,9.483V13.9a28.3,28.3,0,0,0,4.947,16.04,27.782,27.782,0,0,0,11.8,9.8,3.139,3.139,0,0,0,2.506,0,27.78,27.78,0,0,0,11.8-9.8A28.3,28.3,0,0,0,36,13.9V9.483a3.172,3.172,0,0,0-2.118-3ZM25.731,24.761a5.238,5.238,0,0,1-5.208,5.256H15.477a5.238,5.238,0,0,1-5.208-5.256V18.016a2.812,2.812,0,0,1,2.8-2.822h.079V11.857a4.856,4.856,0,1,1,9.711,0v3.338h.079a2.812,2.812,0,0,1,2.8,2.822Zm0,0" transform="translate(0)" fill="#fff"/><path d="M204.855,121.6a2.533,2.533,0,1,0-5.066,0v3.338h5.066Zm0,0" transform="translate(-184.322 -109.743)" fill="#fff"/><path d="M172.988,224.488h-9.869a.477.477,0,0,0-.474.478v6.745a2.9,2.9,0,0,0,2.886,2.912h5.046a2.9,2.9,0,0,0,2.885-2.912v-6.745a.476.476,0,0,0-.474-.478Zm-3.773,6.175a1.161,1.161,0,1,1-2.322,0v-2.214a1.161,1.161,0,1,1,2.322,0Zm0,0" transform="translate(-150.054 -206.95)" fill="#fff"/></g></svg>