<svg xmlns="http://www.w3.org/2000/svg" width="136" height="116" viewBox="0 0 136 116"><path d="M56.088,8.832a20,20,0,0,1,23.823,0l34.42,25.52a20,20,0,0,1,0,32.132L79.912,92a20,20,0,0,1-23.823,0l-34.42-25.52a20,20,0,0,1,0-32.132Z" transform="translate(0 15.165)" fill="#d973bd" opacity="0.5"/><path d="M56.088,8.832a20,20,0,0,1,23.823,0l34.42,25.52a20,20,0,0,1,0,32.132L79.912,92a20,20,0,0,1-23.823,0l-34.42-25.52a20,20,0,0,1,0-32.132Z" fill="#d973bd"/><g transform="translate(43 23)"><path d="M43.681,198.34H42.275V172.324a1.318,1.318,0,0,0-1.318-1.318H35.683a1.318,1.318,0,0,0-1.318,1.318V198.34H31.728V181.113A1.318,1.318,0,0,0,30.41,179.8H25.137a1.318,1.318,0,0,0-1.318,1.318V198.34H21.182V185.947a1.318,1.318,0,0,0-1.318-1.318H14.59a1.318,1.318,0,0,0-1.318,1.318V198.34H10.635v-9.228a1.318,1.318,0,0,0-1.318-1.318H4.043a1.318,1.318,0,0,0-1.318,1.318v9.228H1.318a1.318,1.318,0,0,0,0,2.637H43.681a1.318,1.318,0,0,0,0-2.637Z" transform="translate(0 -155.977)" fill="#fff"/><path d="M1.318,28.33c8.228,0,17.151-2.955,25.125-8.321A48.709,48.709,0,0,0,41.128,4.941l1.28,4.778a1.428,1.428,0,0,0,1.615.932,1.306,1.306,0,0,0,.932-1.615L42.8.98A1.318,1.318,0,0,0,41.181.048L33.124,2.207a1.318,1.318,0,1,0,.682,2.547L39,3.363A45.767,45.767,0,0,1,24.971,17.822C17.428,22.9,9.028,25.694,1.318,25.694a1.318,1.318,0,0,0,0,2.637Z" transform="translate(0 -0.003)" fill="#fff"/></g></svg>